<?xml version="1.0" encoding="UTF-8"?>
<svg width="800" height="600" viewBox="0 0 800 600" fill="none" xmlns="http://www.w3.org/2000/svg">
  <rect width="800" height="600" fill="#1E293B"/>
  
  <!-- 背景网格 -->
  <pattern id="grid" x="0" y="0" width="40" height="40" patternUnits="userSpaceOnUse">
    <path d="M 40 0 L 0 0 0 40" fill="none" stroke="#8B5CF6" stroke-width="0.5" opacity="0.1"/>
  </pattern>
  <rect width="800" height="600" fill="url(#grid)"/>

  <!-- 动画定义 -->
  <defs>
    <linearGradient id="scanner" x1="0" y1="0" x2="0" y2="1">
      <stop offset="0%" stop-color="#8B5CF6" stop-opacity="0"/>
      <stop offset="50%" stop-color="#8B5CF6" stop-opacity="0.5"/>
      <stop offset="100%" stop-color="#8B5CF6" stop-opacity="0"/>
      <animateTransform attributeName="gradientTransform"
        type="translate" from="0 -1" to="0 1"
        dur="2s" repeatCount="indefinite"/>
    </linearGradient>
  </defs>

  <!-- 主要图形 -->
  <g transform="translate(400,300)">
    <!-- 扫描区域 -->
    <rect x="-150" y="-100" width="300" height="200" fill="url(#scanner)" opacity="0.3"/>
    
    <!-- 机器臂 -->
    <g>
      <path d="M-120,-50 L120,-50" stroke="#8B5CF6" stroke-width="8" stroke-linecap="round">
        <animate attributeName="d"
          values="M-120,-50 L120,-50;M-120,50 L120,50;M-120,-50 L120,-50"
          dur="4s" repeatCount="indefinite"/>
      </path>
      
      <!-- 机器臂节点 -->
      <circle cx="-120" cy="-50" r="15" fill="#8B5CF6">
        <animate attributeName="cy"
          values="-50;50;-50"
          dur="4s" repeatCount="indefinite"/>
      </circle>
      <circle cx="120" cy="-50" r="15" fill="#8B5CF6">
        <animate attributeName="cy"
          values="-50;50;-50"
          dur="4s" repeatCount="indefinite"/>
      </circle>
    </g>

    <!-- 检测框 -->
    <g>
      <rect x="-100" y="-80" width="200" height="160" stroke="#8B5CF6" stroke-width="4" fill="none"/>
      <!-- 角标 -->
      <path d="M-100,-80 L-80,-80 M-100,-80 L-100,-60" stroke="#8B5CF6" stroke-width="4"/>
      <path d="M80,-80 L100,-80 M100,-80 L100,-60" stroke="#8B5CF6" stroke-width="4"/>
      <path d="M-100,80 L-80,80 M-100,60 L-100,80" stroke="#8B5CF6" stroke-width="4"/>
      <path d="M80,80 L100,80 M100,60 L100,80" stroke="#8B5CF6" stroke-width="4"/>
    </g>

    <!-- 扫描线 -->
    <line x1="-90" y1="0" x2="90" y2="0" stroke="#8B5CF6" stroke-width="2">
      <animate attributeName="y1" values="-70;70;-70" dur="2s" repeatCount="indefinite"/>
      <animate attributeName="y2" values="-70;70;-70" dur="2s" repeatCount="indefinite"/>
      <animate attributeName="opacity" values="0.2;1;0.2" dur="2s" repeatCount="indefinite"/>
    </line>

    <!-- 数据点 -->
    <g>
      <circle cx="-50" cy="-30" r="6" fill="#8B5CF6">
        <animate attributeName="opacity" values="0.3;1;0.3" dur="1s" repeatCount="indefinite"/>
      </circle>
      <circle cx="50" cy="30" r="6" fill="#8B5CF6">
        <animate attributeName="opacity" values="1;0.3;1" dur="1s" repeatCount="indefinite"/>
      </circle>
      <circle cx="0" cy="0" r="6" fill="#8B5CF6">
        <animate attributeName="opacity" values="0.3;1;0.3" dur="1s" repeatCount="indefinite"/>
      </circle>
    </g>
  </g>
</svg> 